<svg version="1.1" xmlns="http://www.w3.org/2000/svg" xmlns:xlink="http://www.w3.org/1999/xlink" width="577" height="504"><defs><clipPath id="LhrVzQPyoFfx"><path fill="none" stroke="none" d=" M 0 0 L 577 0 L 577 504 L 0 504 L 0 0 Z"/></clipPath></defs><g transform="scale(1,1)" clip-path="url(#LhrVzQPyoFfx)"><g transform="translate(-232.22331372552964,-203.18138378382872)"><rect fill="rgb(255,255,255)" stroke="none" x="0" y="0" width="1056" height="820" fill-opacity="1"/><path fill="none" stroke="rgb(192,192,192)" paint-order="fill stroke markers" d=" M 67.5 0.5 L 67.5 820.5 M 67.5 0.5 L 67.5 820.5 M 144.5 0.5 L 144.5 820.5 M 220.5 0.5 L 220.5 820.5 M 297.5 0.5 L 297.5 820.5 M 373.5 0.5 L 373.5 820.5 M 450.5 0.5 L 450.5 820.5 M 526.5 0.5 L 526.5 820.5 M 602.5 0.5 L 602.5 820.5 M 679.5 0.5 L 679.5 820.5 M 755.5 0.5 L 755.5 820.5 M 832.5 0.5 L 832.5 820.5 M 908.5 0.5 L 908.5 820.5 M 985.5 0.5 L 985.5 820.5" stroke-opacity="1" stroke-linecap="round" stroke-linejoin="round" stroke-miterlimit="10"/><path fill="none" stroke="rgb(192,192,192)" paint-order="fill stroke markers" d="" stroke-opacity="0.23529411764705882" stroke-linecap="round" stroke-linejoin="round" stroke-miterlimit="10"/><path fill="none" stroke="rgb(192,192,192)" paint-order="fill stroke markers" d=" M 0.5 52.5 L 1056.5 52.5 M 0.5 52.5 L 1056.5 52.5 M 0.5 129.5 L 1056.5 129.5 M 0.5 205.5 L 1056.5 205.5 M 0.5 281.5 L 1056.5 281.5 M 0.5 358.5 L 1056.5 358.5 M 0.5 434.5 L 1056.5 434.5 M 0.5 511.5 L 1056.5 511.5 M 0.5 587.5 L 1056.5 587.5 M 0.5 664.5 L 1056.5 664.5 M 0.5 740.5 L 1056.5 740.5 M 0.5 816.5 L 1056.5 816.5" stroke-opacity="1" stroke-linecap="round" stroke-linejoin="round" stroke-miterlimit="10"/><path fill="none" stroke="rgb(192,192,192)" paint-order="fill stroke markers" d="" stroke-opacity="0.23529411764705882" stroke-linecap="round" stroke-linejoin="round" stroke-miterlimit="10"/><path fill="rgb(21,101,192)" stroke="none" paint-order="stroke fill markers" fill-rule="evenodd" d=" M 262.4116356386149 278.46112323797786 L 430.16699411765836 338.8377670641482 L 429.7848634605307 705.3010672495747 L 264.3222889242532 638.8103329093617 L 262.4116356386149 278.46112323797786 Z" fill-opacity="0.09803921568627451"/><path fill="rgb(21,101,192)" stroke="none" paint-order="stroke fill markers" fill-rule="evenodd" d=" M 713.7079417063833 619.321669395851 L 546.7168445415952 555.8879803126594 L 548.2453671701059 203.18138378382872 L 717.5292482776599 260.88311301010543 L 713.7079417063833 619.321669395851 Z" fill-opacity="0.09803921568627451"/><path fill="none" stroke="rgb(21,101,192)" paint-order="fill stroke markers" d=" M 262.4116356386149 278.46112323797786 L 430.16699411765836 338.8377670641482" stroke-opacity="0.8" stroke-linecap="round" stroke-linejoin="round" stroke-miterlimit="10"/><path fill="none" stroke="rgb(21,101,192)" paint-order="fill stroke markers" d=" M 430.16699411765836 338.8377670641482 L 429.7848634605307 705.3010672495747" stroke-opacity="0.8" stroke-linecap="round" stroke-linejoin="round" stroke-miterlimit="10"/><path fill="none" stroke="rgb(46,125,50)" paint-order="fill stroke markers" d=" M 631.549850423936 303.6817466084034 L 547.4811058558505 390.80753643351" stroke-opacity="0.8" stroke-linejoin="round" stroke-miterlimit="10" stroke-width="1.5" stroke-dasharray="9.5,8"/><path fill="none" stroke="rgb(46,125,50)" paint-order="fill stroke markers" d=" M 547.4811058558505 390.80753643351 L 430.16699411765836 512.7072160572337" stroke-opacity="0.8" stroke-linejoin="round" stroke-miterlimit="10" stroke-width="1.5" stroke-dasharray="9.5,8"/><path fill="none" stroke="rgb(46,125,50)" paint-order="fill stroke markers" d=" M 430.16699411765836 512.7072160572337 L 346.0982495495728 599.8330058823403" stroke-opacity="0.8" stroke-linejoin="round" stroke-miterlimit="10" stroke-width="1.5" stroke-dasharray="9.5,8"/><path fill="none" stroke="rgb(211,47,47)" paint-order="fill stroke markers" d=" M 807.712083359788 414.49963717542494 L 715.6185949920216 424.8171649178718" stroke-opacity="0.8" stroke-linejoin="round" stroke-miterlimit="10" stroke-width="1.5" stroke-dasharray="9.5,8"/><path fill="none" stroke="rgb(211,47,47)" paint-order="fill stroke markers" d=" M 715.6185949920216 424.8171649178718 L 681.6089665076597 429.0206021462761" stroke-opacity="0.8" stroke-linejoin="round" stroke-miterlimit="10" stroke-width="1.5" stroke-dasharray="9.5,8"/><path fill="none" stroke="rgb(211,47,47)" paint-order="fill stroke markers" d=" M 681.6089665076597 429.0206021462761 L 547.0989751987229 443.92369777425483" stroke-opacity="0.8" stroke-linejoin="round" stroke-miterlimit="10" stroke-width="1.5" stroke-dasharray="9.5,8"/><path fill="none" stroke="rgb(211,47,47)" paint-order="fill stroke markers" d=" M 547.0989751987229 443.92369777425483 L 430.16699411765836 457.29827077372295" stroke-opacity="0.8" stroke-linejoin="round" stroke-miterlimit="10" stroke-width="1.5" stroke-dasharray="9.5,8"/><path fill="none" stroke="rgb(211,47,47)" paint-order="fill stroke markers" d=" M 430.16699411765836 457.29827077372295 L 296.0391334658491 472.2013664017017" stroke-opacity="0.8" stroke-linejoin="round" stroke-miterlimit="10" stroke-width="1.5" stroke-dasharray="9.5,8"/><path fill="none" stroke="rgb(21,101,192)" paint-order="fill stroke markers" d=" M 429.7848634605307 705.3010672495747 L 264.3222889242532 638.8103329093617" stroke-opacity="0.8" stroke-linecap="round" stroke-linejoin="round" stroke-miterlimit="10"/><path fill="none" stroke="rgb(211,47,47)" paint-order="fill stroke markers" d=" M 285.72160572340226 375.14017949127594 L 430.16699411765836 428.2563408320207" stroke-opacity="0.8" stroke-linejoin="round" stroke-miterlimit="10" stroke-width="1.5" stroke-dasharray="9.5,8"/><path fill="none" stroke="rgb(211,47,47)" paint-order="fill stroke markers" d=" M 430.16699411765836 428.2563408320207 L 547.0989751987229 471.4371050874464" stroke-opacity="0.8" stroke-linecap="round" stroke-linejoin="round" stroke-miterlimit="10" stroke-width="1.5"/><path fill="none" stroke="rgb(211,47,47)" paint-order="fill stroke markers" d=" M 547.0989751987229 471.4371050874464 L 714.4722030206386 533.3422715421274" stroke-opacity="0.8" stroke-linecap="round" stroke-linejoin="round" stroke-miterlimit="10" stroke-width="1.5"/><path fill="none" stroke="rgb(21,101,192)" paint-order="fill stroke markers" d=" M 264.3222889242532 638.8103329093617 L 262.4116356386149 278.46112323797786" stroke-opacity="0.8" stroke-linecap="round" stroke-linejoin="round" stroke-miterlimit="10"/><path fill="none" stroke="rgb(0,51,204)" paint-order="fill stroke markers" d=" M 767.9704950185113 371.701003577127 L 716.0007256491493 386.60409920510574" stroke-opacity="0.8" stroke-linecap="round" stroke-linejoin="round" stroke-miterlimit="10" stroke-width="1.5"/><path fill="none" stroke="rgb(0,51,204)" paint-order="fill stroke markers" d=" M 716.0007256491493 386.60409920510574 L 630.7855891096807 410.67833060414836" stroke-opacity="0.8" stroke-linejoin="round" stroke-miterlimit="10" stroke-width="1.5" stroke-dasharray="9.5,8"/><path fill="none" stroke="rgb(0,51,204)" paint-order="fill stroke markers" d=" M 630.7855891096807 410.67833060414836 L 547.0989751987229 434.3704313460633" stroke-opacity="0.8" stroke-linecap="round" stroke-linejoin="round" stroke-miterlimit="10" stroke-width="1.5"/><path fill="none" stroke="rgb(0,51,204)" paint-order="fill stroke markers" d=" M 547.0989751987229 434.3704313460633 L 430.16699411765836 467.6157985161698" stroke-opacity="0.8" stroke-linecap="round" stroke-linejoin="round" stroke-miterlimit="10" stroke-width="1.5"/><path fill="none" stroke="rgb(0,51,204)" paint-order="fill stroke markers" d=" M 430.16699411765836 467.6157985161698 L 345.71611889244514 491.3078992580847" stroke-opacity="0.8" stroke-linejoin="round" stroke-miterlimit="10" stroke-width="1.5" stroke-dasharray="9.5,8"/><path fill="none" stroke="rgb(0,51,204)" paint-order="fill stroke markers" d=" M 345.71611889244514 491.3078992580847 L 263.5580276099979 514.617869342872" stroke-opacity="0.8" stroke-linecap="round" stroke-linejoin="round" stroke-miterlimit="10" stroke-width="1.5"/><path fill="none" stroke="rgb(21,101,192)" paint-order="fill stroke markers" d=" M 713.7079417063833 619.321669395851 L 546.7168445415952 555.8879803126594" stroke-opacity="0.8" stroke-linecap="round" stroke-linejoin="round" stroke-miterlimit="10"/><path fill="none" stroke="rgb(21,101,192)" paint-order="fill stroke markers" d=" M 546.7168445415952 555.8879803126594 L 548.2453671701059 203.18138378382872" stroke-opacity="0.8" stroke-linecap="round" stroke-linejoin="round" stroke-miterlimit="10"/><path fill="none" stroke="rgb(21,101,192)" paint-order="fill stroke markers" d=" M 548.2453671701059 203.18138378382872 L 717.5292482776599 260.88311301010543" stroke-opacity="0.8" stroke-linecap="round" stroke-linejoin="round" stroke-miterlimit="10"/><path fill="none" stroke="rgb(21,101,192)" paint-order="fill stroke markers" d=" M 717.5292482776599 260.88311301010543 L 713.7079417063833 619.321669395851" stroke-opacity="0.8" stroke-linecap="round" stroke-linejoin="round" stroke-miterlimit="10"/><path fill="none" stroke="rgb(46,125,50)" paint-order="fill stroke markers" d=" M 724.4076001059578 207.0026903551053 L 683.9017504504258 249.41919329627564" stroke-opacity="0.8" stroke-linejoin="round" stroke-miterlimit="10" stroke-width="1.5" stroke-dasharray="9.5,8"/><path fill="none" stroke="rgb(46,125,50)" paint-order="fill stroke markers" d=" M 683.9017504504258 249.41919329627564 L 631.549850423936 303.6817466084034" stroke-opacity="0.8" stroke-linejoin="round" stroke-miterlimit="10" stroke-width="1.5" stroke-dasharray="9.5,8"/><path fill="none" stroke="rgb(21,101,192)" paint-order="fill stroke markers" d=" M 262.4116356386149 278.46112323797786 L 430.16699411765836 338.8377670641482" stroke-opacity="0.8" stroke-linecap="round" stroke-linejoin="round" stroke-miterlimit="10"/><path fill="none" stroke="rgb(21,101,192)" paint-order="fill stroke markers" d=" M 430.16699411765836 338.8377670641482 L 429.7848634605307 705.3010672495747" stroke-opacity="0.8" stroke-linecap="round" stroke-linejoin="round" stroke-miterlimit="10"/><path fill="none" stroke="rgb(21,101,192)" paint-order="fill stroke markers" d=" M 429.7848634605307 705.3010672495747 L 264.3222889242532 638.8103329093617" stroke-opacity="0.8" stroke-linecap="round" stroke-linejoin="round" stroke-miterlimit="10"/><path fill="none" stroke="rgb(21,101,192)" paint-order="fill stroke markers" d=" M 264.3222889242532 638.8103329093617 L 262.4116356386149 278.46112323797786" stroke-opacity="0.8" stroke-linecap="round" stroke-linejoin="round" stroke-miterlimit="10"/><path fill="none" stroke="rgb(21,101,192)" paint-order="fill stroke markers" d=" M 262.4116356386149 278.46112323797786 L 262.4116356386149 278.46112323797786" stroke-opacity="0.8" stroke-linecap="round" stroke-linejoin="round" stroke-miterlimit="10"/><path fill="none" stroke="rgb(21,101,192)" paint-order="fill stroke markers" d=" M 713.7079417063833 619.321669395851 L 546.7168445415952 555.8879803126594" stroke-opacity="0.8" stroke-linecap="round" stroke-linejoin="round" stroke-miterlimit="10"/><path fill="none" stroke="rgb(21,101,192)" paint-order="fill stroke markers" d=" M 546.7168445415952 555.8879803126594 L 548.2453671701059 203.18138378382872" stroke-opacity="0.8" stroke-linecap="round" stroke-linejoin="round" stroke-miterlimit="10"/><path fill="none" stroke="rgb(21,101,192)" paint-order="fill stroke markers" d=" M 548.2453671701059 203.18138378382872 L 717.5292482776599 260.88311301010543" stroke-opacity="0.8" stroke-linecap="round" stroke-linejoin="round" stroke-miterlimit="10"/><path fill="none" stroke="rgb(21,101,192)" paint-order="fill stroke markers" d=" M 717.5292482776599 260.88311301010543 L 713.7079417063833 619.321669395851" stroke-opacity="0.8" stroke-linecap="round" stroke-linejoin="round" stroke-miterlimit="10"/><path fill="none" stroke="rgb(21,101,192)" paint-order="fill stroke markers" d=" M 713.7079417063833 619.321669395851 L 713.7079417063833 619.321669395851" stroke-opacity="0.8" stroke-linecap="round" stroke-linejoin="round" stroke-miterlimit="10"/><path fill="none" stroke="rgb(46,125,50)" paint-order="fill stroke markers" d=" M 630.7855891096807 410.67833060414836 L 631.4355676249907 319.6813384607559" stroke-opacity="0.8" stroke-linecap="round" stroke-linejoin="round" stroke-miterlimit="10" stroke-width="2"/><path fill="rgb(46,125,50)" stroke="none" paint-order="stroke fill markers" fill-rule="evenodd" d=" M 631.549850423936 303.6817466084034 L 635.4354655880788 319.70990916049226 L 627.4356696619025 319.65276776101956 Z" fill-opacity="0.8"/><path fill="none" stroke="rgb(211,47,47)" paint-order="fill stroke markers" d=" M 630.7855891096807 410.67833060414836 L 666.559100246923 423.5890714657094" stroke-opacity="0.8" stroke-linecap="round" stroke-linejoin="round" stroke-miterlimit="10" stroke-width="2"/><path fill="rgb(211,47,47)" stroke="none" paint-order="stroke fill markers" fill-rule="evenodd" d=" M 681.6089665076597 429.0206021462761 L 665.2012175767813 427.3515380308936 L 667.9169829170646 419.82660490052524 Z" fill-opacity="0.8"/><path fill="none" stroke="rgb(46,125,50)" paint-order="fill stroke markers" d=" M 345.71611889244514 491.3078992580847 L 346.04191187064936 583.8331050680873" stroke-opacity="0.8" stroke-linecap="round" stroke-linejoin="round" stroke-miterlimit="10" stroke-width="2"/><path fill="rgb(46,125,50)" stroke="none" paint-order="stroke fill markers" fill-rule="evenodd" d=" M 346.0982495495728 599.8330058823403 L 342.04193666708613 583.8471894878181 L 350.0418870742126 583.8190206483565 Z" fill-opacity="0.8"/><path fill="none" stroke="rgb(211,47,47)" paint-order="fill stroke markers" d=" M 345.71611889244514 491.3078992580847 L 310.972663165098 477.9450316706436" stroke-opacity="0.8" stroke-linecap="round" stroke-linejoin="round" stroke-miterlimit="10" stroke-width="2"/><path fill="rgb(211,47,47)" stroke="none" paint-order="stroke fill markers" fill-rule="evenodd" d=" M 296.0391334658491 472.2013664017017 L 312.4085794823335 474.2116492458313 L 309.53674684786256 481.6784140954558 Z" fill-opacity="0.8"/><path fill="none" stroke="rgb(46,125,50)" paint-order="fill stroke markers" d=" M 722.4969468203195 384.6934459194674 L 724.2355670401753 223.00176547288248" stroke-opacity="0.8" stroke-linecap="round" stroke-linejoin="round" stroke-miterlimit="10" stroke-width="2"/><path fill="rgb(46,125,50)" stroke="none" paint-order="stroke fill markers" fill-rule="evenodd" d=" M 724.4076001059578 207.00269035510527 L 728.2353358196195 223.04477373932812 L 720.235798260731 222.95875720643684 Z" fill-opacity="0.8"/><path fill="none" stroke="rgb(211,47,47)" paint-order="fill stroke markers" d=" M 722.4969468203195 384.6934459194674 L 792.60929410493 409.2170472118423" stroke-opacity="0.8" stroke-linecap="round" stroke-linejoin="round" stroke-miterlimit="10" stroke-width="2"/><path fill="rgb(211,47,47)" stroke="none" paint-order="stroke fill markers" fill-rule="evenodd" d=" M 807.712083359788 414.49963717542494 L 791.2886466140343 412.9927445255568 L 793.9299415958257 405.44134989812784 Z" fill-opacity="0.8"/><path fill="none" stroke="rgb(0,204,0)" paint-order="fill stroke markers" d=" M 489.7793766295736 628.8749358240425 L 490.51172312244995 284.6720841721424" stroke-opacity="0.8" stroke-linecap="round" stroke-linejoin="round" stroke-miterlimit="10" stroke-width="1.5"/><path fill="rgb(0,204,0)" stroke="none" paint-order="stroke fill markers" fill-rule="evenodd" d=" M 490.5436379438289 269.6721181240416 L 494.26171463447514 284.6800628774871 L 486.76173161042476 284.66410546679765 Z" fill-opacity="0.8"/><path fill="none" stroke="rgb(211,47,47)" paint-order="fill stroke markers" d=" M 714.4722030206386 533.3422715421274 L 734.4175072615044 540.73772142919" stroke-opacity="0.8" stroke-linecap="round" stroke-linejoin="round" stroke-miterlimit="10" stroke-width="1.5"/><path fill="rgb(211,47,47)" stroke="none" paint-order="stroke fill markers" fill-rule="evenodd" d=" M 748.4818315050005 545.9525832273403 L 733.1137918119668 544.253802490064 L 735.721222711042 537.2216403683159 Z" fill-opacity="0.8"/><path fill="none" stroke="rgb(0,51,204)" paint-order="fill stroke markers" d=" M 263.5580276099979 514.617869342872 L 261.93139922524847 515.0826203099433" stroke-opacity="0.8" stroke-linecap="round" stroke-linejoin="round" stroke-miterlimit="10" stroke-width="1.5"/><path fill="rgb(0,51,204)" stroke="none" paint-order="stroke fill markers" fill-rule="evenodd" d=" M 247.50854001063612 519.2034372284039 L 260.9011949956333 511.4769055062902 L 262.9616034548636 518.6883351135964 Z" fill-opacity="0.8"/><path fill="rgb(97,97,97)" stroke="none" paint-order="stroke fill markers" d=" M 727.4076001059578 207.0026903551053 C 727.4076001059578 208.65954460459767 726.0644543554503 210.0026903551053 724.4076001059578 210.0026903551053 C 722.7507458564654 210.0026903551053 721.4076001059578 208.65954460459767 721.4076001059578 207.0026903551053 C 721.4076001059578 205.34583610561293 722.7507458564654 204.0026903551053 724.4076001059578 204.0026903551053 C 726.0644543554503 204.0026903551053 727.4076001059578 205.34583610561293 727.4076001059578 207.0026903551053 Z" fill-opacity="1"/><path fill="none" stroke="rgb(0,0,0)" paint-order="fill stroke markers" d=" M 727.4076001059578 207.0026903551053 C 727.4076001059578 208.65954460459767 726.0644543554503 210.0026903551053 724.4076001059578 210.0026903551053 C 722.7507458564654 210.0026903551053 721.4076001059578 208.65954460459767 721.4076001059578 207.0026903551053 C 721.4076001059578 205.34583610561293 722.7507458564654 204.0026903551053 724.4076001059578 204.0026903551053 C 726.0644543554503 204.0026903551053 727.4076001059578 205.34583610561293 727.4076001059578 207.0026903551053 Z" stroke-opacity="1" stroke-linecap="round" stroke-linejoin="round" stroke-miterlimit="10"/><path fill="rgb(97,97,97)" stroke="none" paint-order="stroke fill markers" d=" M 349.0982495495728 599.8330058823403 C 349.0982495495728 601.4898601318328 347.7551037990652 602.8330058823403 346.0982495495728 602.8330058823403 C 344.44139530008044 602.8330058823403 343.0982495495728 601.4898601318328 343.0982495495728 599.8330058823403 C 343.0982495495728 598.1761516328479 344.44139530008044 596.8330058823403 346.0982495495728 596.8330058823403 C 347.7551037990652 596.8330058823403 349.0982495495728 598.1761516328479 349.0982495495728 599.8330058823403 Z" fill-opacity="1"/><path fill="none" stroke="rgb(0,0,0)" paint-order="fill stroke markers" d=" M 349.0982495495728 599.8330058823403 C 349.0982495495728 601.4898601318328 347.7551037990652 602.8330058823403 346.0982495495728 602.8330058823403 C 344.44139530008044 602.8330058823403 343.0982495495728 601.4898601318328 343.0982495495728 599.8330058823403 C 343.0982495495728 598.1761516328479 344.44139530008044 596.8330058823403 346.0982495495728 596.8330058823403 C 347.7551037990652 596.8330058823403 349.0982495495728 598.1761516328479 349.0982495495728 599.8330058823403 Z" stroke-opacity="1" stroke-linecap="round" stroke-linejoin="round" stroke-miterlimit="10"/><path fill="rgb(97,97,97)" stroke="none" paint-order="stroke fill markers" d=" M 634.549850423936 303.6817466084034 C 634.549850423936 305.33860085789576 633.2067046734285 306.6817466084034 631.549850423936 306.6817466084034 C 629.8929961744436 306.6817466084034 628.549850423936 305.33860085789576 628.549850423936 303.6817466084034 C 628.549850423936 302.024892358911 629.8929961744436 300.6817466084034 631.549850423936 300.6817466084034 C 633.2067046734285 300.6817466084034 634.549850423936 302.024892358911 634.549850423936 303.6817466084034 Z" fill-opacity="1"/><path fill="none" stroke="rgb(0,0,0)" paint-order="fill stroke markers" d=" M 634.549850423936 303.6817466084034 C 634.549850423936 305.33860085789576 633.2067046734285 306.6817466084034 631.549850423936 306.6817466084034 C 629.8929961744436 306.6817466084034 628.549850423936 305.33860085789576 628.549850423936 303.6817466084034 C 628.549850423936 302.024892358911 629.8929961744436 300.6817466084034 631.549850423936 300.6817466084034 C 633.2067046734285 300.6817466084034 634.549850423936 302.024892358911 634.549850423936 303.6817466084034 Z" stroke-opacity="1" stroke-linecap="round" stroke-linejoin="round" stroke-miterlimit="10"/><g transform="scale(19,19)"><g transform="translate(38.31578947368421,11.840894736842104)"><path fill="rgb(0,0,0)" stroke="none" paint-order="stroke fill markers" d=" M 0.303 -0.316 L 0.303 -0.316 L 0.241 -0.066 L 0.23800000000000002 -0.049 Q 0.23800000000000002 -0.032 0.28400000000000003 -0.031 L 0.28400000000000003 -0.031 L 0.28400000000000003 -0.031 L 0.303 -0.031 Q 0.329 -0.031 0.331 -0.02 Q 0.331 0 0.311 0 L 0.247 -0.002 L 0.246 -0.002 L 0.184 -0.003 L 0.182 -0.003 L 0.056 0 L 0.055 0 Q 0.04 0 0.04 -0.012 Q 0.04 -0.029 0.056 -0.031 L 0.068 -0.031 Q 0.133 -0.031 0.146 -0.045 Q 0.152 -0.052000000000000005 0.158 -0.073 Q 0.158 -0.074 0.159 -0.078 L 0.293 -0.615 Q 0.297 -0.631 0.297 -0.634 Q 0.297 -0.646 0.281 -0.649 L 0.28 -0.649 L 0.28 -0.649 Q 0.278 -0.65 0.275 -0.65 Q 0.251 -0.652 0.232 -0.652 Q 0.20600000000000002 -0.652 0.20400000000000001 -0.66 Q 0.203 -0.662 0.203 -0.664 Q 0.203 -0.681 0.22 -0.683 L 0.22 -0.683 L 0.233 -0.683 L 0.557 -0.683 Q 0.678 -0.683 0.73 -0.609 Q 0.754 -0.5740000000000001 0.754 -0.532 Q 0.754 -0.451 0.671 -0.385 Q 0.583 -0.316 0.47300000000000003 -0.316 L 0.303 -0.316 M 0.375 -0.614 L 0.307 -0.342 L 0.448 -0.342 Q 0.543 -0.342 0.602 -0.395 Q 0.643 -0.433 0.658 -0.522 L 0.658 -0.523 Q 0.661 -0.542 0.661 -0.556 Q 0.661 -0.652 0.525 -0.652 L 0.429 -0.652 Q 0.393 -0.652 0.385 -0.642 L 0.385 -0.642 L 0.385 -0.641 L 0.384 -0.641 L 0.384 -0.64 Q 0.38 -0.634 0.375 -0.614 Z"/></g></g><g transform="scale(19,19)"><g transform="translate(33.473684210526315,16.893526315789472)"><path fill="rgb(0,0,0)" stroke="none" paint-order="stroke fill markers" d=" M 0.303 -0.316 L 0.303 -0.316 L 0.241 -0.066 L 0.23800000000000002 -0.049 Q 0.23800000000000002 -0.032 0.28400000000000003 -0.031 L 0.28400000000000003 -0.031 L 0.28400000000000003 -0.031 L 0.303 -0.031 Q 0.329 -0.031 0.331 -0.02 Q 0.331 0 0.311 0 L 0.247 -0.002 L 0.246 -0.002 L 0.184 -0.003 L 0.182 -0.003 L 0.056 0 L 0.055 0 Q 0.04 0 0.04 -0.012 Q 0.04 -0.029 0.056 -0.031 L 0.068 -0.031 Q 0.133 -0.031 0.146 -0.045 Q 0.152 -0.052000000000000005 0.158 -0.073 Q 0.158 -0.074 0.159 -0.078 L 0.293 -0.615 Q 0.297 -0.631 0.297 -0.634 Q 0.297 -0.646 0.281 -0.649 L 0.28 -0.649 L 0.28 -0.649 Q 0.278 -0.65 0.275 -0.65 Q 0.251 -0.652 0.232 -0.652 Q 0.20600000000000002 -0.652 0.20400000000000001 -0.66 Q 0.203 -0.662 0.203 -0.664 Q 0.203 -0.681 0.22 -0.683 L 0.22 -0.683 L 0.233 -0.683 L 0.557 -0.683 Q 0.678 -0.683 0.73 -0.609 Q 0.754 -0.5740000000000001 0.754 -0.532 Q 0.754 -0.451 0.671 -0.385 Q 0.583 -0.316 0.47300000000000003 -0.316 L 0.303 -0.316 M 0.375 -0.614 L 0.307 -0.342 L 0.448 -0.342 Q 0.543 -0.342 0.602 -0.395 Q 0.643 -0.433 0.658 -0.522 L 0.658 -0.523 Q 0.661 -0.542 0.661 -0.556 Q 0.661 -0.652 0.525 -0.652 L 0.429 -0.652 Q 0.393 -0.652 0.385 -0.642 L 0.385 -0.642 L 0.385 -0.641 L 0.384 -0.641 L 0.384 -0.64 Q 0.38 -0.634 0.375 -0.614 Z"/></g><g transform="translate(34.11568421052632,17.04352631578947) scale(0.7,0.7)"><path fill="rgb(0,0,0)" stroke="none" paint-order="stroke fill markers" d=" M 0.294 -0.64 L 0.294 -0.079 Q 0.294 -0.049 0.306 -0.041 Q 0.323 -0.031 0.387 -0.031 L 0.419 -0.031 L 0.419 0 Q 0.384 -0.003 0.257 -0.003 Q 0.13 -0.003 0.095 0 L 0.095 -0.031 L 0.127 -0.031 Q 0.20400000000000001 -0.031 0.215 -0.049 L 0.216 -0.05 Q 0.22 -0.058 0.22 -0.079 L 0.22 -0.597 Q 0.168 -0.5710000000000001 0.089 -0.5710000000000001 L 0.089 -0.602 Q 0.209 -0.602 0.271 -0.666 Q 0.29 -0.666 0.293 -0.659 L 0.293 -0.659 L 0.293 -0.658 Q 0.294 -0.655 0.294 -0.64 Z"/></g></g><g transform="scale(19,19)"><g transform="translate(18.42105263157895,32.47247368421053)"><path fill="rgb(0,0,0)" stroke="none" paint-order="stroke fill markers" d=" M 0.303 -0.316 L 0.303 -0.316 L 0.241 -0.066 L 0.23800000000000002 -0.049 Q 0.23800000000000002 -0.032 0.28400000000000003 -0.031 L 0.28400000000000003 -0.031 L 0.28400000000000003 -0.031 L 0.303 -0.031 Q 0.329 -0.031 0.331 -0.02 Q 0.331 0 0.311 0 L 0.247 -0.002 L 0.246 -0.002 L 0.184 -0.003 L 0.182 -0.003 L 0.056 0 L 0.055 0 Q 0.04 0 0.04 -0.012 Q 0.04 -0.029 0.056 -0.031 L 0.068 -0.031 Q 0.133 -0.031 0.146 -0.045 Q 0.152 -0.052000000000000005 0.158 -0.073 Q 0.158 -0.074 0.159 -0.078 L 0.293 -0.615 Q 0.297 -0.631 0.297 -0.634 Q 0.297 -0.646 0.281 -0.649 L 0.28 -0.649 L 0.28 -0.649 Q 0.278 -0.65 0.275 -0.65 Q 0.251 -0.652 0.232 -0.652 Q 0.20600000000000002 -0.652 0.20400000000000001 -0.66 Q 0.203 -0.662 0.203 -0.664 Q 0.203 -0.681 0.22 -0.683 L 0.22 -0.683 L 0.233 -0.683 L 0.557 -0.683 Q 0.678 -0.683 0.73 -0.609 Q 0.754 -0.5740000000000001 0.754 -0.532 Q 0.754 -0.451 0.671 -0.385 Q 0.583 -0.316 0.47300000000000003 -0.316 L 0.303 -0.316 M 0.375 -0.614 L 0.307 -0.342 L 0.448 -0.342 Q 0.543 -0.342 0.602 -0.395 Q 0.643 -0.433 0.658 -0.522 L 0.658 -0.523 Q 0.661 -0.542 0.661 -0.556 Q 0.661 -0.652 0.525 -0.652 L 0.429 -0.652 Q 0.393 -0.652 0.385 -0.642 L 0.385 -0.642 L 0.385 -0.641 L 0.384 -0.641 L 0.384 -0.64 Q 0.38 -0.634 0.375 -0.614 Z"/></g><g transform="translate(19.063052631578948,32.622473684210526) scale(0.7,0.7)"><path fill="rgb(0,0,0)" stroke="none" paint-order="stroke fill markers" d=" M 0.449 -0.17400000000000002 L 0.449 -0.17400000000000002 L 0.421 0 L 0.05 0 Q 0.05 -0.025 0.056 -0.032 L 0.061 -0.037 L 0.253 -0.251 Q 0.358 -0.369 0.358 -0.47200000000000003 Q 0.358 -0.561 0.304 -0.607 L 0.303 -0.608 L 0.302 -0.608 Q 0.27 -0.635 0.224 -0.635 Q 0.152 -0.635 0.109 -0.5730000000000001 Q 0.097 -0.555 0.089 -0.533 Q 0.092 -0.534 0.10200000000000001 -0.534 Q 0.14200000000000002 -0.534 0.153 -0.498 L 0.153 -0.497 Q 0.155 -0.49 0.155 -0.482 Q 0.155 -0.442 0.117 -0.431 Q 0.109 -0.429 0.10300000000000001 -0.429 Q 0.066 -0.429 0.054 -0.46 Q 0.05 -0.47100000000000003 0.05 -0.485 Q 0.05 -0.562 0.109 -0.617 Q 0.162 -0.666 0.23700000000000002 -0.666 Q 0.34700000000000003 -0.666 0.40800000000000003 -0.592 Q 0.443 -0.549 0.448 -0.49 Q 0.449 -0.481 0.449 -0.47200000000000003 Q 0.449 -0.399 0.394 -0.333 Q 0.365 -0.299 0.304 -0.243 L 0.243 -0.189 L 0.233 -0.18 L 0.127 -0.077 L 0.307 -0.077 Q 0.395 -0.077 0.402 -0.085 Q 0.41200000000000003 -0.099 0.424 -0.17400000000000002 L 0.449 -0.17400000000000002 Z"/></g></g><text fill="rgb(211,47,47)" stroke="none" font-family="geogebra-sans-serif, sans-serif" font-size="16px" font-style="italic" font-weight="normal" text-decoration="normal" x="754" y="550" text-anchor="start" dominant-baseline="alphabetic" fill-opacity="1">x</text><text fill="rgb(46,125,50)" stroke="none" font-family="geogebra-sans-serif, sans-serif" font-size="16px" font-style="italic" font-weight="normal" text-decoration="normal" x="497" y="272" text-anchor="start" dominant-baseline="alphabetic" fill-opacity="1">y</text><text fill="rgb(21,101,192)" stroke="none" font-family="geogebra-sans-serif, sans-serif" font-size="16px" font-style="italic" font-weight="normal" text-decoration="normal" x="241" y="512" text-anchor="start" dominant-baseline="alphabetic" fill-opacity="1">z</text><text fill="rgb(0,0,0)" stroke="none" font-family="geogebra-sans-serif, sans-serif" font-size="16px" font-style="normal" font-weight="normal" text-decoration="normal" x="505" y="688" text-anchor="start" dominant-baseline="alphabetic" fill-opacity="1">(A)</text></g></g></svg>